<?xml version="1.0" encoding="utf-8"?>
<!-- Generator: Adobe Illustrator 25.0.0, SVG Export Plug-In . SVG Version: 6.00 Build 0)  -->
<svg version="1.1" id="Layer_1" xmlns="http://www.w3.org/2000/svg" xmlns:xlink="http://www.w3.org/1999/xlink" x="0px" y="0px"
	 viewBox="0 0 484.1 87.1" style="enable-background:new 0 0 484.1 87.1;" xml:space="preserve">
<style type="text/css">
	.st0{fill:none;stroke:#181919;stroke-width:8;stroke-miterlimit:10;}
	.st1{fill:#FFB296;}
	.st2{clip-path:url(#SVGID_2_);}
	.st3{fill:#F2695C;}
	.st4{fill:#00103D;}
</style>
<g>
	<path class="st0" d="M2.8-86.5L28.3-112l25.5,25.5"/>
	<path class="st0" d="M2.8-63.9l25.5-25.5l25.5,25.5"/>
	<path class="st0" d="M101.9-89.4L76.4-63.9L50.9-89.4"/>
	<path class="st0" d="M101.9-112L76.4-86.5L50.9-112"/>
	<path class="st0" d="M28.3-24.1V-126"/>
	<path class="st0" d="M76.4-24.1V-126"/>
</g>
<path d="M127.4-49.6h9v-21.1h22.5v-8.2h-22.5v-13.4h23.8v-8.2h-32.8L127.4-49.6z"/>
<path d="M211.6-94.6c-2.4-2.4-5.4-4.2-8.6-5.4c-3.5-1.3-7.2-1.9-10.9-1.8c-3.7,0-7.3,0.6-10.8,1.9c-3.2,1.2-6.1,3-8.5,5.4
	s-4.3,5.3-5.6,8.5c-1.4,3.5-2.1,7.3-2,11.1c-0.1,3.7,0.6,7.4,2,10.9c2.5,6.4,7.7,11.4,14.1,13.8c3.5,1.3,7.1,1.9,10.8,1.9
	s7.4-0.7,10.9-2c3.2-1.2,6.1-3.1,8.6-5.5c2.4-2.4,4.3-5.2,5.6-8.4c1.4-3.5,2.1-7.2,2-10.9c0.1-3.8-0.6-7.6-2-11.1
	C215.9-89.4,214-92.2,211.6-94.6z M208.5-67.8c-0.8,2.2-2,4.3-3.6,6c-1.5,1.7-3.4,3.1-5.5,4c-2.3,1-4.7,1.4-7.2,1.4
	c-2.5,0.1-4.9-0.4-7.2-1.4c-2.1-0.9-4-2.3-5.5-4c-1.6-1.7-2.8-3.8-3.6-6c-0.9-2.4-1.3-4.9-1.3-7.5c0-2.4,0.4-4.8,1.3-7.1
	c0.8-2.1,2-4.1,3.6-5.8c1.5-1.7,3.4-3,5.5-3.9c2.3-1,4.7-1.4,7.2-1.4s4.9,0.4,7.2,1.4c2.1,0.9,4,2.2,5.5,3.9
	c1.6,1.7,2.8,3.7,3.6,5.8c0.9,2.3,1.3,4.7,1.3,7.1C209.8-72.7,209.4-70.2,208.5-67.8z"/>
<path d="M259.8-76.6c2.1-2.6,3.2-5.9,3.1-9.3c0.1-2.5-0.5-4.9-1.6-7.1c-1-1.8-2.4-3.4-4.2-4.5c-1.9-1.1-3.9-1.9-6.1-2.3
	c-2.3-0.5-4.7-0.7-7.1-0.7h-17.7v50.9h9.1v-21.5h6.6l11.8,21.6h10.9l-13.5-22.6C254.5-72.4,257.6-74,259.8-76.6z M246.2-79.1
	l-3.9,0.2h-7v-13.8h7.8l3.6,0.2c1.1,0.1,2.3,0.4,3.3,0.9c1,0.4,1.8,1.1,2.4,2c0.7,1.1,1,2.3,0.9,3.6c0.1,1.4-0.3,2.7-1,3.9
	c-0.7,0.9-1.6,1.7-2.6,2.1C248.6-79.5,247.4-79.2,246.2-79.1z"/>
<path d="M279.9-71.6h23.4v-8.2h-23.4v-12.5h24.7v-8.2h-33.7v50.9h35v-8.2h-26V-71.6z"/>
<path d="M340-76.2c-1.8-1.1-3.8-2-5.8-2.6l-5.8-1.9c-1.6-0.6-3.1-1.4-4.5-2.4c-1.2-1-1.9-2.5-1.8-4c0-1,0.2-2.1,0.7-3
	c0.5-0.8,1.1-1.5,1.9-2s1.7-0.9,2.7-1.1c1-0.3,2.1-0.4,3.1-0.4c1.7,0,3.5,0.3,5.1,1c1.5,0.6,2.9,1.7,3.8,3.1l6.6-7
	c-1.9-1.8-4.3-3.2-6.8-4s-5.2-1.2-7.8-1.2c-2.3,0-4.7,0.3-6.9,0.9c-2.2,0.6-4.2,1.5-6,2.8c-1.7,1.3-3.2,2.9-4.2,4.8
	c-1.1,2.1-1.7,4.4-1.6,6.8c-0.1,2.5,0.5,5,1.8,7.2c1.2,1.8,2.7,3.2,4.5,4.3c1.8,1.1,3.8,2,5.8,2.6l5.8,2c1.6,0.6,3.2,1.5,4.5,2.6
	c1.2,1.1,1.9,2.7,1.8,4.3c0,1.1-0.3,2.2-0.8,3.1c-0.5,0.9-1.2,1.6-2.1,2.2c-0.9,0.6-1.9,1-2.9,1.3c-3,0.8-6.2,0.4-8.9-1
	c-1.7-0.9-3.2-2.3-4.3-3.9l-6.9,6.5c2,2.4,4.6,4.2,7.5,5.3s6,1.6,9.1,1.6c2.4,0,4.8-0.3,7.1-1c2.1-0.6,4.1-1.6,5.9-3
	c1.7-1.4,3.1-3.1,4.1-5.1c1.1-2.3,1.6-4.7,1.5-7.2c0.1-2.6-0.5-5.1-1.8-7.3C343.3-73.6,341.8-75.1,340-76.2L340-76.2z"/>
<path d="M350.1-92.3h15.6v42.7h9v-42.7h15.6v-8.2h-40.2V-92.3z"/>
<path d="M431.9-76.6c2.1-2.6,3.2-5.9,3.1-9.3c0.1-2.5-0.5-4.9-1.6-7.1c-1-1.8-2.4-3.4-4.2-4.5c-1.9-1.1-3.9-1.9-6.1-2.3
	c-2.3-0.5-4.7-0.7-7.1-0.7h-17.7v50.9h9.1v-21.5h6.6l11.8,21.6h10.9l-13.5-22.6C426.6-72.4,429.7-74,431.9-76.6L431.9-76.6z
	 M418.3-79.1l-3.9,0.2h-7v-13.8h7.8l3.6,0.2c1.1,0.1,2.3,0.4,3.3,0.9c1,0.4,1.8,1.1,2.4,2c0.7,1.1,1,2.3,0.9,3.6
	c0.1,1.4-0.3,2.7-1,3.9c-0.7,0.9-1.6,1.7-2.6,2.1C420.7-79.5,419.5-79.2,418.3-79.1L418.3-79.1z"/>
<path d="M473.3-100.5l-12.7,20.3l-12.5-20.3h-11.3l19.1,29.1v21.8h9v-21.8l19.2-29.1H473.3z"/>
<g>
	<g>
		<circle class="st1" cx="43.6" cy="43.4" r="42.8"/>
	</g>
	<g>
		<g>
			<g>
				<defs>
					<circle id="SVGID_1_" cx="43.6" cy="43.4" r="42.8"/>
				</defs>
				<clipPath id="SVGID_2_">
					<use xlink:href="#SVGID_1_"  style="overflow:visible;"/>
				</clipPath>
				<g class="st2">
					<circle class="st3" cx="13.3" cy="13.4" r="19.5"/>
				</g>
			</g>
		</g>
	</g>
	<path class="st4" d="M34.1,60.3v-3.5l3.7-0.6v-27L34,28.4V25h27l0.5,9.1h-5.2l-1.9-5.3l-8.1-0.4v12.5l5.1-0.1l1-3.8h4.4v12h-4.4
		l-1-4.1l-5.1-0.1V56l7.1,0.6v3.5H34.1V60.3z"/>
	<path class="st4" d="M91.1,60.3v-3.4l3.1-0.5V39.3l-3.1-0.9v-3.9l8.7-1.2h0.1l1.3,1.1v6.1h0.1c0.2-0.6,0.6-1.4,1.1-2.2
		s1.1-1.6,1.8-2.4s1.5-1.4,2.4-1.9s1.9-0.8,2.9-0.8c0.5,0,0.9,0,1.2,0.1c0.3,0,0.5,0.1,0.6,0.2v9.2c-0.2-0.2-0.7-0.3-1.5-0.5
		s-1.8-0.2-3-0.2c-0.4,0-0.8,0-1.2,0.1c-0.5,0-0.9,0.1-1.3,0.2s-0.8,0.2-1.2,0.3c-0.3,0.1-0.6,0.2-0.7,0.3v13.7l5.5,0.6v3.3H91.1
		V60.3z"/>
	<path class="st4" d="M126.4,60.8c-2.3,0-4.2-0.3-5.9-1c-1.6-0.7-2.9-1.6-4-2.8c-1-1.2-1.8-2.7-2.3-4.3c-0.5-1.7-0.7-3.5-0.7-5.5
		c0-2.2,0.3-4.2,0.9-5.9s1.5-3.2,2.6-4.4s2.5-2.1,4.1-2.7c1.6-0.6,3.4-0.9,5.3-0.9c3.4,0,5.9,0.8,7.6,2.3s2.6,3.9,2.8,7.1
		c0,1.1,0,2.1,0,3s-0.1,1.7-0.3,2.3H122c0.1,1.4,0.3,2.6,0.6,3.6s0.8,1.8,1.3,2.4c0.6,0.6,1.2,1.1,2,1.3c0.8,0.3,1.6,0.4,2.6,0.4
		c0.8,0,1.6-0.1,2.3-0.2c0.7-0.1,1.3-0.3,1.9-0.4c0.6-0.2,1.1-0.4,1.5-0.6s0.8-0.4,1.2-0.6l1.3,3.1c-0.4,0.4-0.9,0.8-1.6,1.3
		c-0.7,0.5-1.5,0.9-2.4,1.3c-0.9,0.4-1.9,0.7-3,1S127.6,60.8,126.4,60.8z M125.8,36.5c-0.5,0-1,0.1-1.4,0.3s-0.8,0.6-1.2,1.2
		s-0.6,1.4-0.9,2.5s-0.4,2.5-0.4,4.2h7.1c0,0,0-0.1,0-0.3s0-0.3,0-0.4s0-0.3,0-0.4s0-0.2,0-0.2c0-0.8,0-1.6-0.1-2.4
		c-0.1-0.8-0.2-1.5-0.4-2.2s-0.5-1.2-1-1.6S126.5,36.5,125.8,36.5z"/>
	<path class="st4" d="M152.8,60.8c-2.3,0-4.2-0.3-5.9-1s-2.9-1.6-4-2.8c-1-1.2-1.8-2.7-2.3-4.3c-0.5-1.7-0.7-3.5-0.7-5.5
		c0-2.2,0.3-4.2,0.9-5.9c0.6-1.7,1.5-3.2,2.6-4.4s2.5-2.1,4.1-2.7c1.6-0.6,3.4-0.9,5.3-0.9c3.4,0,5.9,0.8,7.6,2.3
		c1.7,1.5,2.6,3.9,2.8,7.1c0,1.1,0,2.1,0,3s-0.1,1.7-0.3,2.3h-14.7c0.1,1.4,0.3,2.6,0.6,3.6s0.8,1.8,1.3,2.4c0.6,0.6,1.2,1.1,2,1.3
		c0.8,0.3,1.6,0.4,2.6,0.4c0.8,0,1.6-0.1,2.3-0.2c0.7-0.1,1.3-0.3,1.9-0.4c0.6-0.2,1.1-0.4,1.5-0.6c0.4-0.2,0.8-0.4,1.2-0.6l1.3,3.1
		c-0.4,0.4-0.9,0.8-1.6,1.3c-0.7,0.5-1.5,0.9-2.4,1.3c-0.9,0.4-1.9,0.7-3,1S153.9,60.8,152.8,60.8z M152.2,36.5
		c-0.5,0-1,0.1-1.4,0.3s-0.8,0.6-1.2,1.2c-0.3,0.6-0.6,1.4-0.9,2.5s-0.4,2.5-0.4,4.2h7.1c0,0,0-0.1,0-0.3c0-0.1,0-0.3,0-0.4
		s0-0.3,0-0.4s0-0.2,0-0.2c0-0.8,0-1.6-0.1-2.4c-0.1-0.8-0.2-1.5-0.4-2.2s-0.5-1.2-1-1.6S152.9,36.5,152.2,36.5z"/>
	<path class="st4" d="M166.1,60.3v-3.4l3.1-0.5V26.1l-3.3-0.6v-3l9.7-1.2h0.1l1.6,1.2v33.9l3.2,0.5v3.4
		C180.5,60.3,166.1,60.3,166.1,60.3z"/>
	<path class="st4" d="M182.8,53.2c0-1.1,0.2-2.1,0.6-3c0.4-0.9,1-1.7,1.7-2.3c0.7-0.7,1.6-1.2,2.5-1.7s2-0.9,3.1-1.2
		s2.3-0.5,3.5-0.7c1.2-0.1,2.4-0.2,3.7-0.2V43c0-1.6-0.4-2.7-1.1-3.4c-0.7-0.7-1.8-1-3.3-1c-0.8,0-1.7,0.1-2.5,0.2
		c-0.8,0.1-1.7,0.3-2.4,0.5c-0.8,0.2-1.5,0.4-2.2,0.6c-0.7,0.2-1.2,0.4-1.7,0.7l0,0l-1.5-3.6c0.3-0.3,0.9-0.6,1.7-1s1.7-0.8,2.9-1.2
		c1.1-0.4,2.4-0.7,3.7-1c1.4-0.3,2.8-0.4,4.4-0.4c1.7,0,3.2,0.2,4.5,0.6s2.3,1,3.1,1.8s1.4,1.8,1.7,2.9c0.4,1.2,0.5,2.6,0.5,4.1V57
		h2.9v3c-0.3,0.1-0.7,0.1-1.1,0.2s-0.9,0.2-1.5,0.3s-1.2,0.2-1.9,0.2c-0.7,0.1-1.4,0.1-2.1,0.1c-0.6,0-1.1,0-1.6-0.1
		c-0.4-0.1-0.8-0.2-1-0.3c-0.3-0.2-0.4-0.4-0.6-0.7c-0.1-0.3-0.2-0.7-0.2-1.3v-1.6c-0.3,0.4-0.7,0.9-1.1,1.4c-0.5,0.5-1,0.9-1.7,1.3
		c-0.6,0.4-1.4,0.7-2.2,1s-1.8,0.4-2.8,0.4c-1.1,0-2.2-0.2-3.1-0.5c-1-0.3-1.8-0.8-2.5-1.4c-0.7-0.6-1.3-1.4-1.7-2.4
		C183,55.6,182.8,54.5,182.8,53.2z M194.3,55.8c0.2,0,0.5,0,0.8-0.1s0.6-0.2,1-0.3s0.7-0.3,1-0.5s0.6-0.4,0.8-0.6V47
		c-1.3,0-2.4,0.1-3.3,0.4c-0.9,0.3-1.6,0.6-2.1,1s-0.9,0.9-1.1,1.5c-0.2,0.6-0.3,1.2-0.3,1.8c0,1.2,0.3,2.2,0.8,2.9
		C192.3,55.5,193.2,55.8,194.3,55.8z"/>
	<path class="st4" d="M210.9,60.3v-3.4l2.9-0.5V39.3l-3.1-0.9v-3.9l9.1-1.2h0.1l1.3,1.1V37c0.5-0.5,1.1-0.9,1.8-1.4
		c0.7-0.4,1.4-0.8,2.2-1.2c0.8-0.3,1.6-0.6,2.5-0.8s1.8-0.3,2.8-0.3c1.5,0,2.7,0.2,3.7,0.6s1.8,1,2.4,1.8c0.6,0.8,1,1.9,1.3,3.2
		s0.4,2.9,0.4,4.8v12.8l3.2,0.5v3.4h-13.8V57l2.3-0.5v-13c0-1-0.1-1.8-0.2-2.5s-0.3-1.3-0.6-1.7s-0.6-0.8-1.1-1s-1-0.3-1.7-0.3
		c-0.5,0-1,0.1-1.4,0.2c-0.5,0.1-0.9,0.3-1.3,0.5s-0.7,0.4-1.1,0.6s-0.6,0.4-0.7,0.5v16.6l3,0.5v3.4
		C224.9,60.3,210.9,60.3,210.9,60.3z"/>
	<path class="st4" d="M243.6,47.2c0-2.2,0.3-4.1,1-5.9c0.6-1.7,1.5-3.2,2.7-4.4s2.6-2.1,4.2-2.8c1.6-0.6,3.5-1,5.5-1
		c1.2,0,2.2,0.1,3.2,0.2c0.9,0.1,1.8,0.3,2.5,0.4c0.7,0.2,1.3,0.3,1.8,0.5s0.9,0.3,1.2,0.4l-0.2,8.5h-4.6l-1.5-4.2
		c-0.3-0.7-0.7-1.3-1.1-1.7s-1-0.6-1.6-0.6s-1.2,0.2-1.7,0.5s-1,0.8-1.4,1.6c-0.4,0.7-0.7,1.7-1,2.8c-0.2,1.2-0.4,2.6-0.4,4.4
		c0,1.8,0.1,3.3,0.4,4.6c0.2,1.3,0.6,2.3,1.1,3c0.5,0.8,1.2,1.3,1.9,1.7c0.8,0.3,1.7,0.5,2.7,0.5c1.5,0,2.7-0.2,3.7-0.5
		s1.9-0.7,2.6-1.2l1.4,3c-0.3,0.3-0.7,0.7-1.3,1.1c-0.6,0.4-1.3,0.8-2.2,1.2c-0.8,0.4-1.8,0.7-2.8,1s-2.2,0.4-3.3,0.4
		c-2.3,0-4.2-0.3-5.8-1s-2.9-1.6-3.9-2.8s-1.8-2.6-2.2-4.3C243.9,51,243.6,49.2,243.6,47.2z"/>
	<path class="st4" d="M281.5,60.8c-2.3,0-4.2-0.3-5.9-1c-1.6-0.7-2.9-1.6-4-2.8c-1-1.2-1.8-2.7-2.3-4.3c-0.5-1.7-0.7-3.5-0.7-5.5
		c0-2.2,0.3-4.2,0.9-5.9s1.5-3.2,2.6-4.4s2.5-2.1,4.1-2.7s3.4-0.9,5.3-0.9c3.4,0,5.9,0.8,7.6,2.3s2.6,3.9,2.8,7.1c0,1.1,0,2.1,0,3
		s-0.1,1.7-0.3,2.3H277c0.1,1.4,0.3,2.6,0.6,3.6s0.8,1.8,1.3,2.4c0.6,0.6,1.2,1.1,2,1.3c0.8,0.3,1.6,0.4,2.6,0.4
		c0.8,0,1.6-0.1,2.3-0.2c0.7-0.1,1.3-0.3,1.9-0.4c0.6-0.2,1.1-0.4,1.5-0.6c0.4-0.2,0.8-0.4,1.2-0.6l1.3,3.1
		c-0.4,0.4-0.9,0.8-1.6,1.3s-1.5,0.9-2.4,1.3c-0.9,0.4-1.9,0.7-3,1C283.7,60.7,282.6,60.8,281.5,60.8z M280.9,36.5
		c-0.5,0-1,0.1-1.4,0.3s-0.8,0.6-1.2,1.2s-0.6,1.4-0.9,2.5c-0.2,1.1-0.4,2.5-0.4,4.2h7.1c0,0,0-0.1,0-0.3c0-0.1,0-0.3,0-0.4
		s0-0.3,0-0.4s0-0.2,0-0.2c0-0.8,0-1.6-0.1-2.4c-0.1-0.8-0.2-1.5-0.4-2.2s-0.5-1.2-1-1.6S281.6,36.5,280.9,36.5z"/>
	<path class="st4" d="M295.4,60.3v-3.5l3.8-0.6v-27l-3.7-0.7v-3.4h7.8c0.8,0,1.6,0,2.2,0s1.2-0.1,1.8-0.1c0.6,0,1.1-0.1,1.7-0.1
		s1.2,0,1.8,0c2.3,0,4.2,0.2,5.9,0.5c1.7,0.3,3.1,0.8,4.2,1.4s1.9,1.5,2.5,2.5s0.8,2.2,0.8,3.6c0,1.4-0.2,2.6-0.6,3.7
		c-0.4,1.1-1,1.9-1.7,2.7c-0.7,0.7-1.5,1.3-2.5,1.7s-2,0.7-3,0.8c1.4,0,2.7,0.3,3.9,0.6s2.3,0.9,3.3,1.6c1,0.7,1.7,1.5,2.3,2.5
		s0.8,2.1,0.8,3.4c0,1.4-0.2,2.8-0.7,4.1c-0.4,1.3-1.2,2.5-2.3,3.5c-1.1,1-2.6,1.8-4.5,2.4c-1.9,0.6-4.2,0.9-7.1,0.9
		c-0.6,0-1.3,0-1.9,0s-1.3-0.1-1.9-0.1c-0.7,0-1.4-0.1-2.2-0.1c-0.8,0-1.7,0-2.8,0h-7.9L295.4,60.3L295.4,60.3z M307.5,28.2v11.9
		c0.2,0,0.4,0.1,0.8,0.1s0.7,0,1,0c0.4,0,0.7,0,1.1,0s0.7,0,0.9,0c0.9,0,1.6-0.1,2.2-0.4s1-0.7,1.4-1.3c0.3-0.5,0.6-1.2,0.7-2
		s0.2-1.8,0.2-2.8s-0.1-1.8-0.3-2.6s-0.5-1.3-1-1.8c-0.4-0.5-1-0.8-1.7-1s-1.6-0.3-2.6-0.3c-0.2,0-0.4,0-0.7,0s-0.5,0-0.8,0
		s-0.5,0-0.7,0.1C307.8,28.2,307.6,28.2,307.5,28.2z M307.5,43.7v13c0.1,0.1,0.3,0.1,0.6,0.2c0.2,0.1,0.5,0.1,0.8,0.1
		s0.6,0.1,0.9,0.1s0.6,0,0.9,0c1.3,0,2.4-0.2,3.3-0.5s1.6-0.8,2.2-1.3c0.6-0.6,1-1.3,1.3-2.2s0.4-1.8,0.4-2.9c0-1.2-0.1-2.3-0.4-3.1
		s-0.7-1.5-1.2-2.1c-0.5-0.5-1.2-0.9-2.1-1.1c-0.8-0.2-1.8-0.3-3-0.3c-0.2,0-0.5,0-0.9,0s-0.8,0-1.2,0c-0.4,0-0.8,0-1.1,0
		S307.6,43.7,307.5,43.7z"/>
	<path class="st4" d="M328.9,53.2c0-1.1,0.2-2.1,0.6-3s1-1.7,1.7-2.3c0.7-0.7,1.6-1.2,2.5-1.7c1-0.5,2-0.9,3.1-1.2s2.3-0.5,3.5-0.7
		c1.2-0.1,2.4-0.2,3.7-0.2V43c0-1.6-0.4-2.7-1.1-3.4s-1.8-1-3.3-1c-0.8,0-1.7,0.1-2.5,0.2s-1.7,0.3-2.4,0.5
		c-0.8,0.2-1.5,0.4-2.2,0.6c-0.7,0.2-1.2,0.4-1.7,0.7l0,0l-1.5-3.6c0.3-0.3,0.9-0.6,1.7-1s1.7-0.8,2.9-1.2s2.4-0.7,3.7-1
		s2.8-0.4,4.4-0.4c1.7,0,3.2,0.2,4.5,0.6s2.3,1,3.1,1.8c0.8,0.8,1.4,1.8,1.7,2.9c0.4,1.2,0.5,2.6,0.5,4.1V57h2.9v3
		c-0.3,0.1-0.7,0.1-1.1,0.2c-0.4,0.1-0.9,0.2-1.5,0.3s-1.2,0.2-1.9,0.2c-0.7,0.1-1.4,0.1-2.1,0.1c-0.6,0-1.1,0-1.6-0.1
		c-0.4-0.1-0.8-0.2-1-0.3c-0.3-0.2-0.4-0.4-0.6-0.7c-0.1-0.3-0.2-0.7-0.2-1.3v-1.6c-0.3,0.4-0.7,0.9-1.1,1.4c-0.5,0.5-1,0.9-1.7,1.3
		c-0.6,0.4-1.4,0.7-2.2,1c-0.8,0.3-1.8,0.4-2.8,0.4c-1.1,0-2.2-0.2-3.1-0.5s-1.8-0.8-2.5-1.4c-0.7-0.6-1.3-1.4-1.7-2.4
		C329.1,55.6,328.9,54.5,328.9,53.2z M340.4,55.8c0.2,0,0.5,0,0.8-0.1s0.6-0.2,1-0.3c0.3-0.1,0.7-0.3,1-0.5s0.6-0.4,0.8-0.6V47
		c-1.3,0-2.4,0.1-3.3,0.4c-0.9,0.3-1.6,0.6-2.1,1s-0.9,0.9-1.1,1.5s-0.3,1.2-0.3,1.8c0,1.2,0.3,2.2,0.8,2.9S339.3,55.8,340.4,55.8z"
		/>
	<path class="st4" d="M356.2,60.3v-3.4l3.1-0.5V26.1l-3.3-0.6v-3l9.7-1.2h0.1l1.6,1.2v33.9l3.2,0.5v3.4
		C370.6,60.3,356.2,60.3,356.2,60.3z"/>
	<path class="st4" d="M372.9,53.2c0-1.1,0.2-2.1,0.6-3s1-1.7,1.7-2.3c0.7-0.7,1.6-1.2,2.5-1.7c1-0.5,2-0.9,3.1-1.2s2.3-0.5,3.5-0.7
		c1.2-0.1,2.4-0.2,3.7-0.2V43c0-1.6-0.4-2.7-1.1-3.4s-1.8-1-3.3-1c-0.8,0-1.7,0.1-2.5,0.2c-0.8,0.1-1.7,0.3-2.4,0.5
		c-0.8,0.2-1.5,0.4-2.2,0.6c-0.7,0.2-1.2,0.4-1.7,0.7l0,0l-1.5-3.6c0.3-0.3,0.9-0.6,1.7-1c0.8-0.4,1.7-0.8,2.9-1.2s2.4-0.7,3.7-1
		s2.8-0.4,4.4-0.4c1.7,0,3.2,0.2,4.5,0.6s2.3,1,3.1,1.8c0.8,0.8,1.4,1.8,1.7,2.9c0.4,1.2,0.5,2.6,0.5,4.1V57h2.9v3
		c-0.3,0.1-0.7,0.1-1.1,0.2c-0.4,0.1-0.9,0.2-1.5,0.3s-1.2,0.2-1.9,0.2c-0.7,0.1-1.4,0.1-2.1,0.1c-0.6,0-1.1,0-1.6-0.1
		c-0.4-0.1-0.8-0.2-1-0.3c-0.3-0.2-0.4-0.4-0.6-0.7c-0.1-0.3-0.2-0.7-0.2-1.3v-1.6c-0.3,0.4-0.7,0.9-1.1,1.4c-0.5,0.5-1,0.9-1.7,1.3
		c-0.6,0.4-1.4,0.7-2.2,1c-0.8,0.3-1.8,0.4-2.8,0.4c-1.1,0-2.2-0.2-3.1-0.5c-1-0.3-1.8-0.8-2.5-1.4c-0.7-0.6-1.3-1.4-1.7-2.4
		C373.1,55.6,372.9,54.5,372.9,53.2z M384.4,55.8c0.2,0,0.5,0,0.8-0.1s0.6-0.2,1-0.3c0.3-0.1,0.7-0.3,1-0.5s0.6-0.4,0.8-0.6V47
		c-1.3,0-2.4,0.1-3.3,0.4c-0.9,0.3-1.6,0.6-2.1,1s-0.9,0.9-1.1,1.5s-0.3,1.2-0.3,1.8c0,1.2,0.3,2.2,0.8,2.9S383.3,55.8,384.4,55.8z"
		/>
	<path class="st4" d="M401,60.3v-3.4l2.9-0.5V39.3l-3.1-0.9v-3.9l9.1-1.2h0.1l1.3,1.1V37c0.5-0.5,1.1-0.9,1.8-1.4
		c0.7-0.4,1.4-0.8,2.2-1.2c0.8-0.3,1.6-0.6,2.5-0.8s1.8-0.3,2.8-0.3c1.5,0,2.7,0.2,3.7,0.6c1,0.4,1.8,1,2.4,1.8s1,1.9,1.3,3.2
		s0.4,2.9,0.4,4.8v12.8l3.2,0.5v3.4H418V57l2.3-0.5v-13c0-1-0.1-1.8-0.2-2.5s-0.3-1.3-0.6-1.7c-0.3-0.4-0.6-0.8-1.1-1
		s-1-0.3-1.7-0.3c-0.5,0-1,0.1-1.4,0.2c-0.5,0.1-0.9,0.3-1.3,0.5s-0.7,0.4-1.1,0.6c-0.3,0.2-0.6,0.4-0.7,0.5v16.6l3,0.5v3.4
		C415.2,60.3,401,60.3,401,60.3z"/>
	<path class="st4" d="M433.8,47.2c0-2.2,0.3-4.1,1-5.9c0.6-1.7,1.5-3.2,2.7-4.4s2.6-2.1,4.2-2.8s3.5-1,5.5-1c1.2,0,2.2,0.1,3.2,0.2
		c0.9,0.1,1.8,0.3,2.5,0.4s1.3,0.3,1.8,0.5s0.9,0.3,1.2,0.4l-0.2,8.5H451l-1.5-4.2c-0.3-0.7-0.7-1.3-1.1-1.7s-1-0.6-1.6-0.6
		s-1.2,0.2-1.7,0.5s-1,0.8-1.4,1.6s-0.7,1.7-1,2.8c-0.2,1.2-0.4,2.6-0.4,4.4c0,1.8,0.1,3.3,0.4,4.6s0.6,2.3,1.1,3
		c0.5,0.8,1.2,1.3,1.9,1.7c0.8,0.3,1.7,0.5,2.7,0.5c1.5,0,2.7-0.2,3.7-0.5s1.9-0.7,2.6-1.2l1.3,3.1c-0.3,0.3-0.7,0.7-1.3,1.1
		c-0.6,0.4-1.3,0.8-2.2,1.2c-0.8,0.4-1.8,0.7-2.8,1s-2.2,0.4-3.3,0.4c-2.3,0-4.2-0.3-5.8-1s-2.9-1.6-3.9-2.8s-1.8-2.6-2.2-4.3
		C434,51,433.8,49.2,433.8,47.2z"/>
	<path class="st4" d="M471.6,60.8c-2.3,0-4.2-0.3-5.9-1c-1.6-0.7-2.9-1.6-4-2.8c-1-1.2-1.8-2.7-2.3-4.3c-0.5-1.7-0.7-3.5-0.7-5.5
		c0-2.2,0.3-4.2,0.9-5.9s1.5-3.2,2.6-4.4s2.5-2.1,4.1-2.7s3.4-0.9,5.3-0.9c3.4,0,5.9,0.8,7.6,2.3s2.6,3.9,2.8,7.1c0,1.1,0,2.1,0,3
		s-0.1,1.7-0.3,2.3H467c0.1,1.4,0.3,2.6,0.6,3.6s0.8,1.8,1.3,2.4c0.6,0.6,1.2,1.1,2,1.3c0.8,0.3,1.6,0.4,2.6,0.4
		c0.8,0,1.6-0.1,2.3-0.2c0.7-0.1,1.3-0.3,1.9-0.4c0.6-0.2,1.1-0.4,1.5-0.6s0.8-0.4,1.2-0.6l1.3,3.1c-0.4,0.4-0.9,0.8-1.6,1.3
		s-1.5,0.9-2.4,1.3s-1.9,0.7-3,1C473.8,60.7,472.7,60.8,471.6,60.8z M471,36.5c-0.5,0-1,0.1-1.4,0.3s-0.8,0.6-1.2,1.2
		s-0.6,1.4-0.9,2.5c-0.2,1.1-0.4,2.5-0.4,4.2h7.1c0,0,0-0.1,0-0.3c0-0.1,0-0.3,0-0.4s0-0.3,0-0.4s0-0.2,0-0.2c0-0.8,0-1.6-0.1-2.4
		c-0.1-0.8-0.2-1.5-0.4-2.2c-0.2-0.7-0.5-1.2-1-1.6C472.3,36.7,471.7,36.5,471,36.5z"/>
</g>
</svg>
