<svg id="f2ebfa65-e7a9-4fbb-a008-0e53b83e8554" data-name="Layer 1" xmlns="http://www.w3.org/2000/svg" xmlns:xlink="http://www.w3.org/1999/xlink" width="484.1" height="87.1" viewBox="0 0 484.1 87.1"><defs><clipPath id="bdcddfd0-9abd-4221-b5de-d9fc97f4a14f"><circle cx="43.6" cy="43.4" r="42.8" fill="none"/></clipPath></defs><circle cx="43.6" cy="43.4" r="42.8" fill="#ffb296"/><g clip-path="url(#bdcddfd0-9abd-4221-b5de-d9fc97f4a14f)"><circle cx="13.3" cy="13.4" r="19.5" fill="#f2695c"/></g><path d="M34.1,60.3V56.8l3.7-.6v-27L34,28.4V25H61l.5,9.1H56.3l-1.9-5.3-8.1-.4V40.9l5.1-.1,1-3.8h4.4V49H52.4l-1-4.1-5.1-.1V56l7.1.6v3.5H34.1Z" fill="#00103d"/><path d="M91.1,60.3V56.9l3.1-.5V39.3l-3.1-.9V34.5l8.7-1.2h.1l1.3,1.1v6.1h.1a11.2,11.2,0,0,1,1.1-2.2,18.76,18.76,0,0,1,1.8-2.4,8.76,8.76,0,0,1,2.4-1.9,6,6,0,0,1,2.9-.8,4.12,4.12,0,0,1,1.2.1.85.85,0,0,1,.6.2v9.2a4.11,4.11,0,0,0-1.5-.5,13.24,13.24,0,0,0-3-.2,4.87,4.87,0,0,0-1.2.1,5.07,5.07,0,0,0-1.3.2l-1.2.3a2.39,2.39,0,0,0-.7.3V56.6l5.5.6v3.3H91.1Z" fill="#00103d"/><path d="M126.4,60.8a15.2,15.2,0,0,1-5.9-1,11.54,11.54,0,0,1-4-2.8,12.7,12.7,0,0,1-2.3-4.3,19.27,19.27,0,0,1-.7-5.5,17.84,17.84,0,0,1,.9-5.9,12.83,12.83,0,0,1,2.6-4.4,10.49,10.49,0,0,1,4.1-2.7,15.12,15.12,0,0,1,5.3-.9c3.4,0,5.9.8,7.6,2.3s2.6,3.9,2.8,7.1v3a7.55,7.55,0,0,1-.3,2.3H122a16.84,16.84,0,0,0,.6,3.6,6.81,6.81,0,0,0,1.3,2.4,4.35,4.35,0,0,0,2,1.3,7.1,7.1,0,0,0,2.6.4,16.41,16.41,0,0,0,2.3-.2c.7-.1,1.3-.3,1.9-.4a11.64,11.64,0,0,0,1.5-.6l1.2-.6,1.3,3.1a12.57,12.57,0,0,1-1.6,1.3,13.57,13.57,0,0,1-2.4,1.3,21.08,21.08,0,0,1-3,1A12,12,0,0,1,126.4,60.8Zm-.6-24.3a3.19,3.19,0,0,0-1.4.3,3.4,3.4,0,0,0-1.2,1.2,8.85,8.85,0,0,0-.9,2.5,16.59,16.59,0,0,0-.4,4.2H129V43.4a19.27,19.27,0,0,0-.1-2.4,14.35,14.35,0,0,0-.4-2.2,2.94,2.94,0,0,0-1-1.6A2.61,2.61,0,0,0,125.8,36.5Z" fill="#00103d"/><path d="M152.8,60.8a15.2,15.2,0,0,1-5.9-1,10.67,10.67,0,0,1-4-2.8,12.7,12.7,0,0,1-2.3-4.3,19.27,19.27,0,0,1-.7-5.5,17.84,17.84,0,0,1,.9-5.9,12.83,12.83,0,0,1,2.6-4.4,10.49,10.49,0,0,1,4.1-2.7,15.12,15.12,0,0,1,5.3-.9c3.4,0,5.9.8,7.6,2.3s2.6,3.9,2.8,7.1v3a7.55,7.55,0,0,1-.3,2.3H148.2a16.84,16.84,0,0,0,.6,3.6,6.81,6.81,0,0,0,1.3,2.4,4.35,4.35,0,0,0,2,1.3,7.1,7.1,0,0,0,2.6.4,16.41,16.41,0,0,0,2.3-.2c.7-.1,1.3-.3,1.9-.4a11.64,11.64,0,0,0,1.5-.6l1.2-.6,1.3,3.1a12.57,12.57,0,0,1-1.6,1.3,13.57,13.57,0,0,1-2.4,1.3,21.08,21.08,0,0,1-3,1A10.8,10.8,0,0,1,152.8,60.8Zm-.6-24.3a3.19,3.19,0,0,0-1.4.3,3.4,3.4,0,0,0-1.2,1.2,13.68,13.68,0,0,0-.9,2.5,16.59,16.59,0,0,0-.4,4.2h7.1V43.4a19.27,19.27,0,0,0-.1-2.4,14.35,14.35,0,0,0-.4-2.2,2.94,2.94,0,0,0-1-1.6A2.61,2.61,0,0,0,152.2,36.5Z" fill="#00103d"/><path d="M166.1,60.3V56.9l3.1-.5V26.1l-3.3-.6v-3l9.7-1.2h.1l1.6,1.2V56.4l3.2.5v3.4Z" fill="#00103d"/><path d="M182.8,53.2a7.31,7.31,0,0,1,.6-3,6.58,6.58,0,0,1,1.7-2.3,11,11,0,0,1,2.5-1.7,14.28,14.28,0,0,1,3.1-1.2c1.1-.3,2.3-.5,3.5-.7s2.4-.2,3.7-.2V43a4.62,4.62,0,0,0-1.1-3.4,4.5,4.5,0,0,0-3.3-1,21.05,21.05,0,0,0-2.5.2,17,17,0,0,0-2.4.5c-.8.2-1.5.4-2.2.6a6.69,6.69,0,0,0-1.7.7h0L183.2,37a7.52,7.52,0,0,1,1.7-1,21.33,21.33,0,0,1,2.9-1.2,32.92,32.92,0,0,1,3.7-1,20.58,20.58,0,0,1,4.4-.4,15.32,15.32,0,0,1,4.5.6,7.27,7.27,0,0,1,3.1,1.8,6.57,6.57,0,0,1,1.7,2.9,13.18,13.18,0,0,1,.5,4.1V57h2.9v3c-.3.1-.7.1-1.1.2s-.9.2-1.5.3a11.08,11.08,0,0,1-1.9.2,14.77,14.77,0,0,1-2.1.1,8.08,8.08,0,0,1-1.6-.1,6.21,6.21,0,0,1-1-.3,2,2,0,0,1-.6-.7,3.92,3.92,0,0,1-.2-1.3V56.8c-.3.4-.7.9-1.1,1.4a7.63,7.63,0,0,1-1.7,1.3,11.21,11.21,0,0,1-2.2,1,8.25,8.25,0,0,1-2.8.4,10.07,10.07,0,0,1-3.1-.5,6.77,6.77,0,0,1-2.5-1.4,6.14,6.14,0,0,1-1.7-2.4A7.39,7.39,0,0,1,182.8,53.2Zm11.5,2.6a2.49,2.49,0,0,0,.8-.1c.3-.1.6-.2,1-.3a3.13,3.13,0,0,0,1-.5,5.55,5.55,0,0,0,.8-.6V47a10.64,10.64,0,0,0-3.3.4,6.85,6.85,0,0,0-2.1,1,3.27,3.27,0,0,0-1.1,1.5,5.66,5.66,0,0,0-.3,1.8,5,5,0,0,0,.8,2.9A2.35,2.35,0,0,0,194.3,55.8Z" fill="#00103d"/><path d="M210.9,60.3V56.9l2.9-.5V39.3l-3.1-.9V34.5l9.1-1.2h.1l1.3,1.1V37a14.1,14.1,0,0,1,1.8-1.4c.7-.4,1.4-.8,2.2-1.2a18.29,18.29,0,0,1,2.5-.8,12.65,12.65,0,0,1,2.8-.3,9.88,9.88,0,0,1,3.7.6,5.46,5.46,0,0,1,2.4,1.8,8.57,8.57,0,0,1,1.3,3.2,22.06,22.06,0,0,1,.4,4.8V56.5l3.2.5v3.4H227.7V57l2.3-.5v-13a16.86,16.86,0,0,0-.2-2.5,3.78,3.78,0,0,0-.6-1.7,2.66,2.66,0,0,0-1.1-1,4.31,4.31,0,0,0-1.7-.3,5.9,5.9,0,0,0-1.4.2,5,5,0,0,0-1.3.5c-.4.2-.7.4-1.1.6a2.49,2.49,0,0,0-.7.5V56.4l3,.5v3.4Z" fill="#00103d"/><path d="M243.6,47.2a15.89,15.89,0,0,1,1-5.9,11.64,11.64,0,0,1,2.7-4.4,13.43,13.43,0,0,1,4.2-2.8,15.84,15.84,0,0,1,5.5-1,30.48,30.48,0,0,1,3.2.2c.9.1,1.8.3,2.5.4s1.3.3,1.8.5.9.3,1.2.4l-.2,8.5h-4.6l-1.5-4.2a5.55,5.55,0,0,0-1.1-1.7,2.27,2.27,0,0,0-1.6-.6,3.37,3.37,0,0,0-1.7.5,3.76,3.76,0,0,0-1.4,1.6,12.83,12.83,0,0,0-1,2.8,25.47,25.47,0,0,0-.4,4.4,20.71,20.71,0,0,0,.4,4.6,7,7,0,0,0,1.1,3,5.1,5.1,0,0,0,1.9,1.7,7.63,7.63,0,0,0,2.7.5,12.72,12.72,0,0,0,3.7-.5,8.93,8.93,0,0,0,2.6-1.2l1.4,3a8.12,8.12,0,0,1-1.3,1.1,14.51,14.51,0,0,1-2.2,1.2,18.25,18.25,0,0,1-2.8,1,11.94,11.94,0,0,1-3.3.4,14.35,14.35,0,0,1-5.8-1,10.23,10.23,0,0,1-6.1-7.1A15.29,15.29,0,0,1,243.6,47.2Z" fill="#00103d"/><path d="M281.5,60.8a15.2,15.2,0,0,1-5.9-1,11.54,11.54,0,0,1-4-2.8,12.7,12.7,0,0,1-2.3-4.3,19.27,19.27,0,0,1-.7-5.5,17.84,17.84,0,0,1,.9-5.9,12.83,12.83,0,0,1,2.6-4.4,10.49,10.49,0,0,1,4.1-2.7,15.12,15.12,0,0,1,5.3-.9c3.4,0,5.9.8,7.6,2.3s2.6,3.9,2.8,7.1v3a7.55,7.55,0,0,1-.3,2.3H277a16.84,16.84,0,0,0,.6,3.6,6.81,6.81,0,0,0,1.3,2.4,4.35,4.35,0,0,0,2,1.3,7.1,7.1,0,0,0,2.6.4,16.41,16.41,0,0,0,2.3-.2c.7-.1,1.3-.3,1.9-.4a11.64,11.64,0,0,0,1.5-.6l1.2-.6,1.3,3.1a12.57,12.57,0,0,1-1.6,1.3,13.57,13.57,0,0,1-2.4,1.3,21.08,21.08,0,0,1-3,1C283.7,60.7,282.6,60.8,281.5,60.8Zm-.6-24.3a3.19,3.19,0,0,0-1.4.3,3.4,3.4,0,0,0-1.2,1.2,8.85,8.85,0,0,0-.9,2.5,23,23,0,0,0-.4,4.2h7.1V43.4A19.27,19.27,0,0,0,284,41a14.35,14.35,0,0,0-.4-2.2,2.94,2.94,0,0,0-1-1.6A2.61,2.61,0,0,0,280.9,36.5Z" fill="#00103d"/><path d="M295.4,60.3V56.8l3.8-.6v-27l-3.7-.7V25.1h10c.6,0,1.2-.1,1.8-.1s1.1-.1,1.7-.1h1.8a33.32,33.32,0,0,1,5.9.5,13.77,13.77,0,0,1,4.2,1.4,6.67,6.67,0,0,1,2.5,2.5,6.85,6.85,0,0,1,.8,3.6,10.64,10.64,0,0,1-.6,3.7,8.28,8.28,0,0,1-1.7,2.7,7.39,7.39,0,0,1-2.5,1.7,11.14,11.14,0,0,1-3,.8,15.92,15.92,0,0,1,3.9.6,10.11,10.11,0,0,1,3.3,1.6,7.82,7.82,0,0,1,2.3,2.5,6.35,6.35,0,0,1,.8,3.4A11.41,11.41,0,0,1,326,54a7.93,7.93,0,0,1-2.3,3.5,12,12,0,0,1-4.5,2.4,23.6,23.6,0,0,1-7.1.9h-1.9c-.6,0-1.3-.1-1.9-.1s-1.4-.1-2.2-.1H295.4v-.3Zm12.1-32.1V40.1c.2,0,.4.1.8.1h3a4.81,4.81,0,0,0,2.2-.4,3.48,3.48,0,0,0,1.4-1.3,5.22,5.22,0,0,0,.7-2,23,23,0,0,0,.2-2.8,10.32,10.32,0,0,0-.3-2.6,3.54,3.54,0,0,0-1-1.8,3.23,3.23,0,0,0-1.7-1,9.78,9.78,0,0,0-2.6-.3h-1.5a1.48,1.48,0,0,0-.7.1A1.09,1.09,0,0,1,307.5,28.2Zm0,15.5v13c.1.1.3.1.6.2a2,2,0,0,0,.8.1c.3,0,.6.1.9.1h.9a10.42,10.42,0,0,0,3.3-.5,6.75,6.75,0,0,0,2.2-1.3,5.37,5.37,0,0,0,1.3-2.2,8.85,8.85,0,0,0,.4-2.9,9.34,9.34,0,0,0-.4-3.1,7.19,7.19,0,0,0-1.2-2.1,4.22,4.22,0,0,0-2.1-1.1,12.62,12.62,0,0,0-3-.3H308A2,2,0,0,0,307.5,43.7Z" fill="#00103d"/><path d="M328.9,53.2a7.31,7.31,0,0,1,.6-3,6.58,6.58,0,0,1,1.7-2.3,11,11,0,0,1,2.5-1.7,16.59,16.59,0,0,1,3.1-1.2c1.1-.3,2.3-.5,3.5-.7s2.4-.2,3.7-.2V43a4.62,4.62,0,0,0-1.1-3.4,4.5,4.5,0,0,0-3.3-1,21.05,21.05,0,0,0-2.5.2,17,17,0,0,0-2.4.5c-.8.2-1.5.4-2.2.6a6.69,6.69,0,0,0-1.7.7h0L329.3,37a7.52,7.52,0,0,1,1.7-1,21.33,21.33,0,0,1,2.9-1.2c1.2-.4,2.4-.7,3.7-1a20,20,0,0,1,4.4-.4,15.32,15.32,0,0,1,4.5.6,7.27,7.27,0,0,1,3.1,1.8,6.57,6.57,0,0,1,1.7,2.9,13.18,13.18,0,0,1,.5,4.1V57h2.9v3c-.3.1-.7.1-1.1.2s-.9.2-1.5.3a11.08,11.08,0,0,1-1.9.2,14.77,14.77,0,0,1-2.1.1,8.08,8.08,0,0,1-1.6-.1,6.21,6.21,0,0,1-1-.3,2,2,0,0,1-.6-.7,3.92,3.92,0,0,1-.2-1.3V56.8c-.3.4-.7.9-1.1,1.4a7.63,7.63,0,0,1-1.7,1.3,11.21,11.21,0,0,1-2.2,1,8.25,8.25,0,0,1-2.8.4,10.07,10.07,0,0,1-3.1-.5,7.68,7.68,0,0,1-2.5-1.4,6.14,6.14,0,0,1-1.7-2.4A7.39,7.39,0,0,1,328.9,53.2Zm11.5,2.6a2.49,2.49,0,0,0,.8-.1c.3-.1.6-.2,1-.3a4.67,4.67,0,0,0,1-.5,5.55,5.55,0,0,0,.8-.6V47a10.64,10.64,0,0,0-3.3.4,6.85,6.85,0,0,0-2.1,1,3.27,3.27,0,0,0-1.1,1.5,5.66,5.66,0,0,0-.3,1.8,5,5,0,0,0,.8,2.9A2.84,2.84,0,0,0,340.4,55.8Z" fill="#00103d"/><path d="M356.2,60.3V56.9l3.1-.5V26.1l-3.3-.6v-3l9.7-1.2h.1l1.6,1.2V56.4l3.2.5v3.4Z" fill="#00103d"/><path d="M372.9,53.2a7.31,7.31,0,0,1,.6-3,6.58,6.58,0,0,1,1.7-2.3,11,11,0,0,1,2.5-1.7,16.59,16.59,0,0,1,3.1-1.2c1.1-.3,2.3-.5,3.5-.7s2.4-.2,3.7-.2V43a4.62,4.62,0,0,0-1.1-3.4,4.5,4.5,0,0,0-3.3-1,21.05,21.05,0,0,0-2.5.2,17,17,0,0,0-2.4.5c-.8.2-1.5.4-2.2.6a6.69,6.69,0,0,0-1.7.7h0L373.3,37a7.52,7.52,0,0,1,1.7-1,21.33,21.33,0,0,1,2.9-1.2c1.2-.4,2.4-.7,3.7-1a20,20,0,0,1,4.4-.4,15.32,15.32,0,0,1,4.5.6,7.27,7.27,0,0,1,3.1,1.8,6.57,6.57,0,0,1,1.7,2.9,13.18,13.18,0,0,1,.5,4.1V57h2.9v3c-.3.1-.7.1-1.1.2s-.9.2-1.5.3a11.08,11.08,0,0,1-1.9.2,14.77,14.77,0,0,1-2.1.1,8.08,8.08,0,0,1-1.6-.1,6.21,6.21,0,0,1-1-.3,2,2,0,0,1-.6-.7,3.92,3.92,0,0,1-.2-1.3V56.8c-.3.4-.7.9-1.1,1.4a7.63,7.63,0,0,1-1.7,1.3,11.21,11.21,0,0,1-2.2,1,8.25,8.25,0,0,1-2.8.4,10.07,10.07,0,0,1-3.1-.5,6.77,6.77,0,0,1-2.5-1.4,6.14,6.14,0,0,1-1.7-2.4A7.39,7.39,0,0,1,372.9,53.2Zm11.5,2.6a2.49,2.49,0,0,0,.8-.1c.3-.1.6-.2,1-.3a4.67,4.67,0,0,0,1-.5,5.55,5.55,0,0,0,.8-.6V47a10.64,10.64,0,0,0-3.3.4,6.85,6.85,0,0,0-2.1,1,3.27,3.27,0,0,0-1.1,1.5,5.66,5.66,0,0,0-.3,1.8,5,5,0,0,0,.8,2.9A2.84,2.84,0,0,0,384.4,55.8Z" fill="#00103d"/><path d="M401,60.3V56.9l2.9-.5V39.3l-3.1-.9V34.5l9.1-1.2h.1l1.3,1.1V37a14.1,14.1,0,0,1,1.8-1.4c.7-.4,1.4-.8,2.2-1.2a18.29,18.29,0,0,1,2.5-.8,12.65,12.65,0,0,1,2.8-.3,9.88,9.88,0,0,1,3.7.6,5.46,5.46,0,0,1,2.4,1.8,8.57,8.57,0,0,1,1.3,3.2,22.06,22.06,0,0,1,.4,4.8V56.5l3.2.5v3.4H418V57l2.3-.5v-13a16.86,16.86,0,0,0-.2-2.5,3.78,3.78,0,0,0-.6-1.7,2.66,2.66,0,0,0-1.1-1,4.31,4.31,0,0,0-1.7-.3,5.9,5.9,0,0,0-1.4.2,5,5,0,0,0-1.3.5c-.4.2-.7.4-1.1.6a6.82,6.82,0,0,0-.7.5V56.4l3,.5v3.4Z" fill="#00103d"/><path d="M433.8,47.2a15.89,15.89,0,0,1,1-5.9,11.64,11.64,0,0,1,2.7-4.4,13.43,13.43,0,0,1,4.2-2.8,13.83,13.83,0,0,1,5.5-1,30.48,30.48,0,0,1,3.2.2c.9.1,1.8.3,2.5.4a7.76,7.76,0,0,1,1.8.5c.5.2.9.3,1.2.4l-.2,8.5H451l-1.5-4.2a5.55,5.55,0,0,0-1.1-1.7,2.27,2.27,0,0,0-1.6-.6,3.37,3.37,0,0,0-1.7.5,3.76,3.76,0,0,0-1.4,1.6,15.08,15.08,0,0,0-1,2.8,25.47,25.47,0,0,0-.4,4.4,20.71,20.71,0,0,0,.4,4.6,8.59,8.59,0,0,0,1.1,3,5.1,5.1,0,0,0,1.9,1.7,7.63,7.63,0,0,0,2.7.5,12.72,12.72,0,0,0,3.7-.5,8.93,8.93,0,0,0,2.6-1.2l1.3,3.1a8.12,8.12,0,0,1-1.3,1.1,14.51,14.51,0,0,1-2.2,1.2,18.25,18.25,0,0,1-2.8,1,11.94,11.94,0,0,1-3.3.4,14.35,14.35,0,0,1-5.8-1,10.23,10.23,0,0,1-6.1-7.1A19.27,19.27,0,0,1,433.8,47.2Z" fill="#00103d"/><path d="M471.6,60.8a15.2,15.2,0,0,1-5.9-1,11.54,11.54,0,0,1-4-2.8,12.7,12.7,0,0,1-2.3-4.3,19.27,19.27,0,0,1-.7-5.5,17.84,17.84,0,0,1,.9-5.9,12.83,12.83,0,0,1,2.6-4.4,10.49,10.49,0,0,1,4.1-2.7,15.12,15.12,0,0,1,5.3-.9c3.4,0,5.9.8,7.6,2.3s2.6,3.9,2.8,7.1v3a7.55,7.55,0,0,1-.3,2.3H467a16.84,16.84,0,0,0,.6,3.6,6.81,6.81,0,0,0,1.3,2.4,4.35,4.35,0,0,0,2,1.3,7.1,7.1,0,0,0,2.6.4,16.41,16.41,0,0,0,2.3-.2c.7-.1,1.3-.3,1.9-.4a11.64,11.64,0,0,0,1.5-.6l1.2-.6,1.3,3.1a12.57,12.57,0,0,1-1.6,1.3,13.57,13.57,0,0,1-2.4,1.3,21.08,21.08,0,0,1-3,1A28.51,28.51,0,0,1,471.6,60.8ZM471,36.5a3.19,3.19,0,0,0-1.4.3,3.4,3.4,0,0,0-1.2,1.2,8.85,8.85,0,0,0-.9,2.5,23,23,0,0,0-.4,4.2h7.1V43.4a19.27,19.27,0,0,0-.1-2.4,14.35,14.35,0,0,0-.4-2.2,2.94,2.94,0,0,0-1-1.6A2.06,2.06,0,0,0,471,36.5Z" fill="#00103d"/></svg>