<svg id="f0da28ed-176d-4460-a202-36176d10b6ff" data-name="Layer 1" xmlns="http://www.w3.org/2000/svg" xmlns:xlink="http://www.w3.org/1999/xlink" width="484.1" height="87.14" viewBox="0 0 484.1 87.14"><defs><clipPath id="a648f999-4445-4507-aa07-205c2c31ed93"><circle cx="43.64" cy="43.37" r="42.84" fill="none"/></clipPath></defs><circle cx="43.64" cy="43.37" r="42.84" fill="#f27979"/><g clip-path="url(#a648f999-4445-4507-aa07-205c2c31ed93)"><circle cx="13.3" cy="13.45" r="19.47" fill="#ffb296"/></g><path d="M34.12,60.26v-3.5l3.71-.65v-27l-3.78-.74V25H61l.46,9.14H56.27L54.35,28.8l-8.05-.42V40.84l5.12-.07,1-3.76h4.36V49.06H52.38l-1-4.09-5.12-.09V56.11l7.05.65v3.5Z" fill="#00103d"/><path d="M91.06,60.26V56.85l3.11-.48V39.27l-3.11-.93v-3.9l8.66-1.23h.14l1.3,1.07v6.15h.11a13.09,13.09,0,0,1,1.08-2.23,13,13,0,0,1,1.8-2.38,10.48,10.48,0,0,1,2.41-1.89,5.8,5.8,0,0,1,2.9-.77,8.83,8.83,0,0,1,1.21.06,3.71,3.71,0,0,1,.65.15v9.24a4.2,4.2,0,0,0-1.53-.48,17,17,0,0,0-3-.22,11.44,11.44,0,0,0-1.24.07c-.46.05-.9.1-1.33.17a9.19,9.19,0,0,0-1.16.26,3,3,0,0,0-.72.29V56.37l5.52.62v3.27Z" fill="#00103d"/><path d="M126.42,60.8a15,15,0,0,1-5.85-1,10.31,10.31,0,0,1-4-2.85,11.28,11.28,0,0,1-2.25-4.32,20.29,20.29,0,0,1-.71-5.5,18,18,0,0,1,.9-5.91,12.13,12.13,0,0,1,2.59-4.36,11.12,11.12,0,0,1,4.06-2.7,14.54,14.54,0,0,1,5.33-.93q5.05,0,7.6,2.31t2.77,7.06c0,1.12,0,2.12,0,3a15.53,15.53,0,0,1-.26,2.27H122a14.14,14.14,0,0,0,.63,3.58,6.6,6.6,0,0,0,1.32,2.39,4.81,4.81,0,0,0,2,1.34,7.7,7.7,0,0,0,2.62.42,14.32,14.32,0,0,0,2.28-.17,13.56,13.56,0,0,0,1.85-.45,9.57,9.57,0,0,0,1.5-.59c.44-.21.84-.42,1.2-.62l1.32,3.06a8.38,8.38,0,0,1-1.57,1.26,15.76,15.76,0,0,1-2.4,1.29,18.93,18.93,0,0,1-3,1A13.58,13.58,0,0,1,126.42,60.8Zm-.62-24.34a3.36,3.36,0,0,0-1.41.29,2.72,2.72,0,0,0-1.18,1.16,8.27,8.27,0,0,0-.86,2.46,23.93,23.93,0,0,0-.4,4.19h7c0-.05,0-.14,0-.26s0-.26,0-.41v-.63c0-.78,0-1.56-.1-2.36a9.54,9.54,0,0,0-.44-2.19,4.07,4.07,0,0,0-1-1.63A2.34,2.34,0,0,0,125.8,36.46Z" fill="#00103d"/><path d="M152.78,60.8a15.1,15.1,0,0,1-5.86-1,10.28,10.28,0,0,1-4-2.85,11.44,11.44,0,0,1-2.26-4.32,20.3,20.3,0,0,1-.7-5.5,18,18,0,0,1,.9-5.91,12,12,0,0,1,2.59-4.36,11,11,0,0,1,4.06-2.7,14.49,14.49,0,0,1,5.32-.93q5.07,0,7.6,2.31c1.7,1.54,2.62,3.89,2.78,7.06,0,1.12,0,2.12,0,3a17,17,0,0,1-.26,2.27H148.33a14.63,14.63,0,0,0,.62,3.58,6.77,6.77,0,0,0,1.33,2.39,4.81,4.81,0,0,0,2,1.34,7.66,7.66,0,0,0,2.62.42,14.32,14.32,0,0,0,2.28-.17A13.56,13.56,0,0,0,159,55a9.57,9.57,0,0,0,1.5-.59c.44-.21.84-.42,1.19-.62L163,56.83a8.38,8.38,0,0,1-1.57,1.26,15.76,15.76,0,0,1-2.4,1.29,18.93,18.93,0,0,1-3,1A13.58,13.58,0,0,1,152.78,60.8Zm-.63-24.34a3.35,3.35,0,0,0-1.4.29,2.72,2.72,0,0,0-1.18,1.16,8,8,0,0,0-.86,2.46,23.79,23.79,0,0,0-.41,4.19h7.06c0-.05,0-.14,0-.26s0-.26,0-.41v-.63c0-.78,0-1.56-.1-2.36a9,9,0,0,0-.45-2.19,3.94,3.94,0,0,0-1-1.63A2.36,2.36,0,0,0,152.15,36.46Z" fill="#00103d"/><path d="M166.08,60.26V56.85l3.1-.48V26.11l-3.27-.65v-3l9.73-1.21h.09l1.6,1.23V56.37l3.25.48v3.41Z" fill="#00103d"/><path d="M182.76,53.16a7,7,0,0,1,.61-3,7.45,7.45,0,0,1,1.69-2.33,9.87,9.87,0,0,1,2.51-1.72,17.59,17.59,0,0,1,3.13-1.16,24.62,24.62,0,0,1,3.52-.67,34.62,34.62,0,0,1,3.67-.25V43a4.45,4.45,0,0,0-1.09-3.37,4.83,4.83,0,0,0-3.35-1,16.41,16.41,0,0,0-2.51.19c-.85.12-1.65.27-2.43.46s-1.49.39-2.16.61-1.23.45-1.71.67h0l-1.53-3.58a13.47,13.47,0,0,1,1.7-1,22.12,22.12,0,0,1,2.85-1.22,29.81,29.81,0,0,1,3.74-1,21.06,21.06,0,0,1,4.36-.44,15.13,15.13,0,0,1,4.49.59,7.55,7.55,0,0,1,3.05,1.76A7.07,7.07,0,0,1,205,38.51a14.29,14.29,0,0,1,.54,4.14V56.83h2.88V60l-1.1.24c-.44.09-.95.18-1.51.26s-1.18.16-1.86.22a20.63,20.63,0,0,1-2.14.1,13.91,13.91,0,0,1-1.58-.08,2.45,2.45,0,0,1-1-.34,1.43,1.43,0,0,1-.56-.73,3.71,3.71,0,0,1-.17-1.27v-1.6a10.19,10.19,0,0,1-1.15,1.37,8.32,8.32,0,0,1-1.68,1.3,9.86,9.86,0,0,1-2.23,1,9.41,9.41,0,0,1-2.79.39,10.08,10.08,0,0,1-3.11-.46A6.81,6.81,0,0,1,185,59a6.33,6.33,0,0,1-1.66-2.37A9,9,0,0,1,182.76,53.16Zm11.55,2.67a3.7,3.7,0,0,0,.8-.1,7.72,7.72,0,0,0,1-.29,7.16,7.16,0,0,0,1-.46,3.71,3.71,0,0,0,.83-.61V47.11a12.4,12.4,0,0,0-3.31.38,5.91,5.91,0,0,0-2.12,1A3.78,3.78,0,0,0,191.33,50a5,5,0,0,0-.34,1.81,4.91,4.91,0,0,0,.79,2.89A2.91,2.91,0,0,0,194.31,55.83Z" fill="#00103d"/><path d="M210.93,60.26V56.85l2.92-.48V39.27l-3.09-.93v-3.9l9.14-1.23H220l1.3,1.07V37a12.46,12.46,0,0,1,1.78-1.38,13.88,13.88,0,0,1,2.2-1.17,14.51,14.51,0,0,1,2.54-.82,12.11,12.11,0,0,1,2.76-.32,10.37,10.37,0,0,1,3.69.57,5.2,5.2,0,0,1,2.39,1.8,8,8,0,0,1,1.3,3.2,25,25,0,0,1,.39,4.76V56.39l3.25.46v3.41H227.84V56.85l2.27-.48V43.49A16.63,16.63,0,0,0,230,41a4.65,4.65,0,0,0-.56-1.71,2.29,2.29,0,0,0-1.06-1,4.21,4.21,0,0,0-1.7-.3,5.8,5.8,0,0,0-1.44.18,8.73,8.73,0,0,0-1.28.46,7,7,0,0,0-1.06.57,6.33,6.33,0,0,0-.74.53V56.37l3,.48v3.41Z" fill="#00103d"/><path d="M243.64,47.22a16.89,16.89,0,0,1,1-5.87,12.77,12.77,0,0,1,2.72-4.42,11.84,11.84,0,0,1,4.21-2.79,14.68,14.68,0,0,1,5.45-1,25.3,25.3,0,0,1,3.18.18,24.4,24.4,0,0,1,2.49.41c.72.17,1.33.33,1.84.49s.91.28,1.22.36l-.24,8.49H260.9l-1.48-4.2a5.13,5.13,0,0,0-1.12-1.69,2.19,2.19,0,0,0-1.6-.63,3.3,3.3,0,0,0-1.71.48,4,4,0,0,0-1.43,1.55,10,10,0,0,0-1,2.85,22.14,22.14,0,0,0-.37,4.36,24.82,24.82,0,0,0,.36,4.59,8.29,8.29,0,0,0,1.13,3,4.3,4.3,0,0,0,1.92,1.66,7,7,0,0,0,2.74.5,11.42,11.42,0,0,0,3.7-.52,14.53,14.53,0,0,0,2.61-1.17L266,57a8.08,8.08,0,0,1-1.32,1.11,12.69,12.69,0,0,1-2.16,1.24,15.23,15.23,0,0,1-2.82,1,13.19,13.19,0,0,1-3.32.41,15,15,0,0,1-5.83-1A10.37,10.37,0,0,1,246.59,57a11.43,11.43,0,0,1-2.24-4.31A19.85,19.85,0,0,1,243.64,47.22Z" fill="#00103d"/><path d="M281.48,60.8a15.1,15.1,0,0,1-5.86-1,10.35,10.35,0,0,1-4-2.85,11.28,11.28,0,0,1-2.25-4.32,19.9,19.9,0,0,1-.71-5.5,18,18,0,0,1,.9-5.91,12.13,12.13,0,0,1,2.59-4.36,11.12,11.12,0,0,1,4.06-2.7,14.54,14.54,0,0,1,5.33-.93q5.06,0,7.59,2.31c1.7,1.54,2.62,3.89,2.78,7.06,0,1.12,0,2.12,0,3a15.53,15.53,0,0,1-.26,2.27H277a14.63,14.63,0,0,0,.62,3.58A6.77,6.77,0,0,0,279,53.84a4.81,4.81,0,0,0,2,1.34,7.7,7.7,0,0,0,2.62.42,14.32,14.32,0,0,0,2.28-.17,13.56,13.56,0,0,0,1.85-.45,9.57,9.57,0,0,0,1.5-.59c.44-.21.84-.42,1.2-.62l1.32,3.06a8.38,8.38,0,0,1-1.57,1.26,15.76,15.76,0,0,1-2.4,1.29,18.93,18.93,0,0,1-3,1A13.58,13.58,0,0,1,281.48,60.8Zm-.62-24.34a3.36,3.36,0,0,0-1.41.29,2.72,2.72,0,0,0-1.18,1.16,8.27,8.27,0,0,0-.86,2.46,23.93,23.93,0,0,0-.4,4.19h7.05c0-.05,0-.14,0-.26s0-.26,0-.41v-.63c0-.78,0-1.56-.1-2.36a9.54,9.54,0,0,0-.44-2.19,4.07,4.07,0,0,0-1-1.63A2.34,2.34,0,0,0,280.86,36.46Z" fill="#00103d"/><path d="M295.43,60.26v-3.5l3.76-.65v-27l-3.74-.74V25h7.8c.82,0,1.55,0,2.19-.05l1.82-.09,1.71-.09c.56,0,1.17,0,1.82,0a33.9,33.9,0,0,1,5.9.45,13.13,13.13,0,0,1,4.18,1.42A6.3,6.3,0,0,1,323.34,29a7.61,7.61,0,0,1,.81,3.64,10.08,10.08,0,0,1-.62,3.67,7.94,7.94,0,0,1-1.7,2.66,8.18,8.18,0,0,1-2.49,1.71,10.65,10.65,0,0,1-3,.85,15.24,15.24,0,0,1,3.93.64,11,11,0,0,1,3.3,1.6,7.88,7.88,0,0,1,2.26,2.52,6.7,6.7,0,0,1,.83,3.36,12.73,12.73,0,0,1-.66,4.08,8.07,8.07,0,0,1-2.32,3.48,12,12,0,0,1-4.46,2.42,23.69,23.69,0,0,1-7.1.9c-.65,0-1.28,0-1.89,0l-1.95-.1L306,60.31c-.81,0-1.73-.05-2.76-.05Zm12.09-32v11.9a4,4,0,0,0,.76.1l1,0,1.08,0h.91a5.09,5.09,0,0,0,2.21-.43,3.47,3.47,0,0,0,1.4-1.26,5.63,5.63,0,0,0,.73-2,16.73,16.73,0,0,0,.21-2.82,10.08,10.08,0,0,0-.29-2.56,4.23,4.23,0,0,0-1-1.79,3.88,3.88,0,0,0-1.74-1,8.7,8.7,0,0,0-2.63-.34l-.71,0-.8,0-.72.06A2.75,2.75,0,0,0,307.52,28.22Zm0,15.48v13a2.41,2.41,0,0,0,.55.17c.25.06.52.1.81.14a9.19,9.19,0,0,0,.93.08l.93,0a10.16,10.16,0,0,0,3.28-.47,5.56,5.56,0,0,0,2.22-1.33,5.28,5.28,0,0,0,1.26-2.16,9.39,9.39,0,0,0,.41-2.91,11.07,11.07,0,0,0-.38-3.1,4.79,4.79,0,0,0-1.2-2A4.62,4.62,0,0,0,314.28,44a11.23,11.23,0,0,0-3-.35h-.9l-1.16,0c-.39,0-.75,0-1.07,0S307.62,43.68,307.52,43.7Z" fill="#00103d"/><path d="M328.86,53.16a7,7,0,0,1,.62-3,7.58,7.58,0,0,1,1.68-2.33,9.75,9.75,0,0,1,2.52-1.72,17.31,17.31,0,0,1,3.13-1.16,24.22,24.22,0,0,1,3.51-.67A35,35,0,0,1,344,44V43a4.42,4.42,0,0,0-1.09-3.37,4.8,4.8,0,0,0-3.34-1,16.45,16.45,0,0,0-2.52.19c-.84.12-1.65.27-2.42.46s-1.5.39-2.16.61-1.24.45-1.72.67h0l-1.53-3.58a13.18,13.18,0,0,1,1.69-1,22.12,22.12,0,0,1,2.85-1.22,30.29,30.29,0,0,1,3.74-1,21.13,21.13,0,0,1,4.36-.44,15.09,15.09,0,0,1,4.49.59,7.48,7.48,0,0,1,3.05,1.76,7,7,0,0,1,1.73,2.95,14.27,14.27,0,0,1,.55,4.14V56.83h2.87V60l-1.1.24c-.44.09-.94.18-1.51.26s-1.18.16-1.85.22a21,21,0,0,1-2.15.1,14,14,0,0,1-1.58-.08,2.5,2.5,0,0,1-1-.34,1.49,1.49,0,0,1-.56-.73,4,4,0,0,1-.17-1.27v-1.6a9.49,9.49,0,0,1-1.15,1.37,8.32,8.32,0,0,1-1.68,1.3,9.67,9.67,0,0,1-2.23,1,9.29,9.29,0,0,1-2.78.39,10,10,0,0,1-3.11-.46,6.85,6.85,0,0,1-2.5-1.38,6.31,6.31,0,0,1-1.65-2.37A8.76,8.76,0,0,1,328.86,53.16Zm11.56,2.67a3.85,3.85,0,0,0,.8-.1,8.1,8.1,0,0,0,1-.29,7.9,7.9,0,0,0,1-.46,3.65,3.65,0,0,0,.82-.61V47.11a12.4,12.4,0,0,0-3.31.38,6,6,0,0,0-2.12,1A3.78,3.78,0,0,0,337.43,50a5,5,0,0,0-.33,1.81,4.84,4.84,0,0,0,.79,2.89A2.9,2.9,0,0,0,340.42,55.83Z" fill="#00103d"/><path d="M356.19,60.26V56.85l3.11-.48V26.11L356,25.46v-3l9.72-1.21h.1l1.6,1.23V56.37l3.25.48v3.41Z" fill="#00103d"/><path d="M372.88,53.16a7,7,0,0,1,.61-3,7.58,7.58,0,0,1,1.68-2.33,9.75,9.75,0,0,1,2.52-1.72,17.59,17.59,0,0,1,3.13-1.16,24.36,24.36,0,0,1,3.52-.67A34.61,34.61,0,0,1,388,44V43a4.42,4.42,0,0,0-1.09-3.37,4.78,4.78,0,0,0-3.34-1,16.64,16.64,0,0,0-2.52.19c-.84.12-1.65.27-2.42.46s-1.49.39-2.16.61-1.23.45-1.71.67h0l-1.53-3.58a14,14,0,0,1,1.69-1,21.71,21.71,0,0,1,2.86-1.22,30.12,30.12,0,0,1,3.73-1,21.16,21.16,0,0,1,4.37-.44,15.18,15.18,0,0,1,4.49.59,7.55,7.55,0,0,1,3.05,1.76,7.07,7.07,0,0,1,1.73,2.95,14.29,14.29,0,0,1,.54,4.14V56.83h2.88V60l-1.1.24c-.45.09-.95.18-1.51.26s-1.19.16-1.86.22a20.77,20.77,0,0,1-2.14.1,13.91,13.91,0,0,1-1.58-.08,2.5,2.5,0,0,1-1-.34,1.41,1.41,0,0,1-.55-.73,3.68,3.68,0,0,1-.18-1.27v-1.6a9.37,9.37,0,0,1-1.14,1.37,8.69,8.69,0,0,1-1.69,1.3,9.78,9.78,0,0,1-2.22,1,9.41,9.41,0,0,1-2.79.39,10.08,10.08,0,0,1-3.11-.46A6.73,6.73,0,0,1,375.14,59a6.22,6.22,0,0,1-1.66-2.37A9,9,0,0,1,372.88,53.16Zm11.55,2.67a3.77,3.77,0,0,0,.8-.1,8.24,8.24,0,0,0,1-.29,7.78,7.78,0,0,0,1-.46,3.43,3.43,0,0,0,.82-.61V47.11a12.37,12.37,0,0,0-3.3.38,6,6,0,0,0-2.13,1A3.76,3.76,0,0,0,381.45,50a5,5,0,0,0-.34,1.81,4.91,4.91,0,0,0,.79,2.89A2.91,2.91,0,0,0,384.43,55.83Z" fill="#00103d"/><path d="M401,60.26V56.85l2.93-.48V39.27l-3.09-.93v-3.9L410,33.21h.12l1.3,1.07V37a12.93,12.93,0,0,1,1.77-1.38,14.44,14.44,0,0,1,2.21-1.17,14.24,14.24,0,0,1,2.54-.82,12,12,0,0,1,2.76-.32,10.37,10.37,0,0,1,3.69.57,5.25,5.25,0,0,1,2.39,1.8,8.16,8.16,0,0,1,1.3,3.2,25,25,0,0,1,.39,4.76V56.39l3.25.46v3.41H418V56.85l2.27-.48V43.49a16.63,16.63,0,0,0-.16-2.53,4.65,4.65,0,0,0-.56-1.71,2.34,2.34,0,0,0-1.06-1,4.21,4.21,0,0,0-1.7-.3,5.8,5.8,0,0,0-1.44.18,8.73,8.73,0,0,0-1.28.46,7,7,0,0,0-1.06.57,6.33,6.33,0,0,0-.74.53V56.37l3,.48v3.41Z" fill="#00103d"/><path d="M433.76,47.22a16.89,16.89,0,0,1,1-5.87,12.62,12.62,0,0,1,2.72-4.42,11.75,11.75,0,0,1,4.21-2.79,14.65,14.65,0,0,1,5.45-1,25.42,25.42,0,0,1,3.18.18,24.87,24.87,0,0,1,2.49.41c.72.17,1.33.33,1.84.49s.9.28,1.21.36l-.23,8.49H451l-1.48-4.2a5.13,5.13,0,0,0-1.12-1.69,2.19,2.19,0,0,0-1.6-.63,3.36,3.36,0,0,0-1.72.48,4.07,4.07,0,0,0-1.42,1.55,10,10,0,0,0-1,2.85,21.4,21.4,0,0,0-.37,4.36,24.82,24.82,0,0,0,.36,4.59,8.3,8.3,0,0,0,1.12,3,4.38,4.38,0,0,0,1.93,1.66,6.94,6.94,0,0,0,2.74.5,11.42,11.42,0,0,0,3.7-.52,14.53,14.53,0,0,0,2.61-1.17L456.1,57a8.54,8.54,0,0,1-1.32,1.11,12.69,12.69,0,0,1-2.16,1.24,15.23,15.23,0,0,1-2.82,1,13.21,13.21,0,0,1-3.33.41,14.93,14.93,0,0,1-5.82-1A10.37,10.37,0,0,1,436.71,57a11.29,11.29,0,0,1-2.24-4.31A19.47,19.47,0,0,1,433.76,47.22Z" fill="#00103d"/><path d="M471.6,60.8a15.1,15.1,0,0,1-5.86-1,10.39,10.39,0,0,1-4-2.85,11.56,11.56,0,0,1-2.25-4.32,20.3,20.3,0,0,1-.7-5.5,18,18,0,0,1,.9-5.91,12,12,0,0,1,2.59-4.36,11,11,0,0,1,4.06-2.7,14.49,14.49,0,0,1,5.32-.93q5.07,0,7.6,2.31c1.7,1.54,2.62,3.89,2.78,7.06,0,1.12,0,2.12,0,3a17,17,0,0,1-.26,2.27H467.15a14.63,14.63,0,0,0,.62,3.58,6.77,6.77,0,0,0,1.33,2.39,4.81,4.81,0,0,0,2,1.34,7.66,7.66,0,0,0,2.62.42,14.32,14.32,0,0,0,2.28-.17,13.56,13.56,0,0,0,1.85-.45,9.57,9.57,0,0,0,1.5-.59c.44-.21.84-.42,1.19-.62l1.33,3.06a8.38,8.38,0,0,1-1.57,1.26,15.76,15.76,0,0,1-2.4,1.29,18.93,18.93,0,0,1-3,1A13.58,13.58,0,0,1,471.6,60.8ZM471,36.46a3.35,3.35,0,0,0-1.4.29,2.72,2.72,0,0,0-1.18,1.16,8,8,0,0,0-.86,2.46,23.79,23.79,0,0,0-.41,4.19h7.06c0-.05,0-.14,0-.26s0-.26,0-.41v-.63c0-.78,0-1.56-.1-2.36a9,9,0,0,0-.45-2.19,3.94,3.94,0,0,0-1-1.63A2.36,2.36,0,0,0,471,36.46Z" fill="#00103d"/></svg>